# xmcd
#
# Track frame offsets:
#	300
#	29524
#	63962
#	85720
#	124826
#	142554
#	174500
#	198922
#	219333
#	247395
#	275374
#	303385
#	348559
#
# Disc length: 4799 seconds
#
# Revision: 1
# Processed by: cddbd v1.5.1PL0 Copyright (c) Steve Scherf et al.
# Submitted via: audiograbber 1.83.01
#
DISCID=bb12bb0d
DTITLE=Mario BACKSLASH - Issue 07 (aka feelingz unsolicited)
DYEAR=2002
DGENRE=House
TTITLE0=Dubtribe Sound System - do it now
TTITLE1=Elting, Frank - you're out you're in
TTITLE2=Yost, Kevin - part one
TTITLE3=Hot Lizard - 165 drop
TTITLE4=Mandalay - not 17
TTITLE5=K-Hand - 2 low keys
TTITLE6=Solar House - the roots
TTITLE7=STP - an american in paris
TTITLE8=Dubtribe Sound System - do it now
TTITLE9=Solar House - got 2 b u
TTITLE10=A Million Sons - misti blu
TTITLE11=Migs, Miguel - take me to paradise
TTITLE12=Strong, Ame - tout est bleu
EXTD=produced by DJ Mario BACKSLASH  (also known as LOMITKO)
EXTT0=original mix
EXTT1=
EXTT2=
EXTT3=
EXTT4=Ibizarre remix
EXTT5=
EXTT6=
EXTT7=
EXTT8=
EXTT9=
EXTT10=
EXTT11=
EXTT12=
PLAYORDER=
